<svg xmlns="http://www.w3.org/2000/svg" xml:space="preserve" width="24" height="24" viewBox="0 0 290.031 290.031"><path d="M45.395 271.896c11.846 11.847 28.588 18.115 48.402 18.115 39.641 0 89.543-25.276 130.232-65.964 29.127-29.126 50.531-62.819 60.27-94.872 10.721-35.286 6.307-65.038-12.433-83.775L230.878 4.413c-5.857-5.858-15.355-5.858-21.213 0l-61.366 61.363a15.001 15.001 0 0 0 0 21.213l30.445 30.445-61.354 61.353-30.445-30.445c-5.858-5.857-15.355-5.857-21.213.001l-61.34 61.339c-5.857 5.858-5.857 15.355 0 21.213l41.003 41.001z"/></svg>