<svg xmlns="http://www.w3.org/2000/svg" xml:space="preserve" width="12" height="12" viewBox="0 0 512 512"><path d="M256 0C114.842 0 0 114.842 0 256s114.842 256 256 256 256-114.842 256-256S397.158 0 256 0zm-61.73 34.43c-10.879 10.942-20.817 25.328-29.403 43.945-6.558 14.217-12.228 30.589-16.964 46.343H67.21C97.373 81.395 142.101 49 194.27 34.43zM51.43 150.974h89.971c-6.111 28.882-9.67 60.39-10.408 91.897H26.607c1.791-32.82 10.543-63.015 24.823-91.897zM26.673 269.128h104.35c.8 32.82 4.418 64.328 10.6 91.897H51.98c-14.446-27.569-23.366-57.763-25.307-91.897zm41.26 118.154h80.266c4.676 17.067 10.245 31.772 16.666 45.693 8.413 18.238 18.206 32.647 28.936 43.817-51.55-14.516-95.806-46.187-125.868-89.51zm174.939 96.319c-24.944-8.623-51.007-42.493-67.465-96.319h67.465v96.319zm0-122.575H168.34c-6.236-26.256-10.214-57.764-11.062-91.897h85.593v91.897zm0-118.154h-85.613c.776-31.508 4.54-63.015 11.001-91.897h74.612v91.897zm0-118.154H175.26c3.898-11.815 8.174-24.25 13.232-35.216 15.353-33.288 34.687-54.59 54.38-61.13v96.346zm242.521 118.154H381.007c-.738-31.508-4.296-63.015-10.408-91.897h89.971c14.28 28.881 23.032 59.076 24.823 91.897zM444.79 124.718h-80.693c-4.737-15.754-10.405-31.996-16.963-46.213-8.524-18.481-18.091-33.049-28.51-43.962 51.787 14.689 96.175 48.165 126.166 90.175zM269.128 28.652c19.692 6.875 38.816 28.047 53.946 60.849 5.058 10.966 9.767 23.401 13.665 35.216h-67.612V28.652zm0 122.322h74.612c6.46 28.882 10.226 60.39 11.001 91.897h-85.613v-91.897zm0 118.154h85.593c-.848 34.133-4.826 65.641-11.062 91.897h-74.531v-91.897zm0 214.188v-96.034h67.465c-16.274 52.513-41.208 86.939-67.465 96.034zm50.46-6.791c10.013-11.117 19.234-25.659 27.546-43.68 6.421-13.921 11.99-28.496 16.666-45.563h80.266c-29.791 43.323-73.521 74.545-124.478 89.243zM460.02 361.026h-89.642c6.181-27.569 9.8-59.077 10.6-91.897h104.35c-1.942 34.133-10.862 64.327-25.308 91.897z"/></svg>